<svg version="1.1" id="Layer_1" xmlns="http://www.w3.org/2000/svg" x="0" y="0" viewBox="0 0 165.4 47.2" xml:space="preserve"><style>.st0{fill:#fff}</style><path class="st0" d="M16 11.3c1.6.2 3 2.5 1.8 5-1 2.1-3.3 5.6-4.4 8-1.2 2.7-.9 4.9.8 4.8 1.9-.1 4.2-3.2 6-6.5.2-.4.6-.4.8 0 .3.5.2 1.6-.4 3-1.3 2.6-4.2 5-7 5-4 0-4.9-2.9-3.6-7 1.6-4.6 5.7-9.6 4.8-10-.5-.2-3.2 1.1-6.2 4.4-2.8 3-4.8 7.5-6.9 12-.2.4-.5.6-.9.2-.9-.9-1.2-2.5-.5-4.8.9-3 4.6-9.5 7.5-13.9.3-.5.7-.5 1 0 .7 1.2.7 2.8.1 4.5 2.3-2.4 5.5-4.9 7.1-4.7z"/><path class="st0" d="M29.9 31.7C27.4 38 24 45.5 20.2 47c-.9.4-1.9.2-2.7-1-1-1.4-1.8-3.1-.9-5.8C18 36 22 33.1 26.7 31.3c.5-1 .9-2.2 1.4-3.2-1.4 1.4-3 2.4-4.8 2.4-4.3 0-5.2-5.9-1.4-11.5 3.7-5.5 7.5-7.6 9.9-7.6 1.9 0 2.8 1.5 2.8 3.1.6-.9 1.1-1.8 1.6-2.6.4-.7.8-.7 1.2-.3.7.8 1.1 2.9-.1 5.2-1.4 2.8-4.4 8.5-6.4 13.1 4-2 6.5-4.6 8.4-7.1.3-.4.7-.4.8.1.1.4-.1 1.5-.9 2.7-2 2.8-5.3 4.7-9.3 6.1zM18.4 44.3c.6.9 4.3-4 7.4-11.2-6.1 3.7-8.2 10.1-7.4 11.2zm14-30.7c-1.5-.1-4.9 2.9-7.5 7-2.5 4-3.1 8.2-1.2 8.2 1.8 0 4.2-2.9 6.6-7.1 3.1-5 3.5-8 2.1-8.1z"/><path class="st0" d="M57.7 20.1c1.2 3.2-1.8 6.7-3.8 8.1-3.3 2.4-7.3 2.4-9.8 1-2.1-1.1-4-4-4-7.9-.2-10 8.2-18.5 13.5-20.5 2.5-1 4.8-1.2 6.4.1 1 .9 2.1 2.3 2.5 3.4.4 1.4.3 2.7-.4 4.1-.7 1.5-1.4 3.3-1.9 4.7-.1.4-.5.7-1 .3-1.1-.7-1.8-2.2-1.1-4.5.8-2.5 2.4-5.2 1.4-6.3-1.6-1.4-8.8 2.4-13 9.4-4.1 6.9-3.7 13.8-1.4 15.7 3 2.4 8-.7 11.6-7.7.2-.5.7-.5 1 .1zM89.4 30.5c-3.9 0-4.9-2.9-3.5-6.9 1.6-4.6 5.7-9.6 4.9-9.9-.6-.2-3.2 1-6.2 4.3-2.7 3-4.9 7.5-6.9 11.9-.1.3-.5.6-.9.1-.8-.9-1.2-2.4-.4-4.8.5-1.5 1.6-3.9 3-6.4-1.3.8-2.7 1.3-4.4 1.2-.9 4-4 8.8-7.4 10-1.7.6-4.1.5-5.9-2-2.1-2.8-1.4-6.9.8-10.6 1.8-3.2 4.7-5.9 7.5-6.1 1.4-.1 2.2.3 3.2 1.6 1.1 1.5 2.5 1.8 2.3 5.2v.8c3 0 6-3.5 8.6-7.3.3-.5.7-.5 1-.1.7 1.2.7 2.8.2 4.4 2.1-2.2 5.2-4.8 6.8-4.6 1.6.2 3 2.6 1.8 5-1 2.1-3.2 5.5-4.4 8-1.2 2.7-1 4.8.8 4.8 1.9 0 4.1-3.1 5.9-6.5.2-.4.7-.4.8 0 .2.6.2 1.5-.5 3-1.4 2.6-4.3 4.9-7.1 4.9zM68.9 14.8c-1.3 1.1-2.6 2.7-3.7 4.5-2.1 3.5-2.7 7.9-1.5 8.9s4.2-.6 6.4-4.8c.8-1.5 1.4-2.8 1.7-4-1.5-.9-2.8-2.7-2.9-4.6zm3.7 0c-.2-1.5-1.2-1.2-1.4.1-.1 1 .2 2.4 1.1 3.2.3-1.3.4-2.4.3-3.3z"/><path class="st0" d="M98.1 10.2c-.5-.7-.2-1 .5-.9 1.3 0 2.6 0 3.9-.2 1.5-2.6 2.8-4.8 3.6-5.8.4-.6.9-.6 1.1 0 .5 1.3.5 2.9-.6 5.3 1.8 0 2.5.8 2.9 1.4.3.6.1.9-.6.9-1-.1-2.5 0-3.7.2-1.8 3.2-4.5 7.7-6.3 11.7-1.6 3.4-1 6.4.9 6.4 2.1.1 4.8-3.2 6.5-6.8.3-.6.8-.7 1 0 .2.8 0 1.6-.5 2.7-.6 1.4-3.7 5.5-7.5 5.4-3.1-.1-5.6-3.6-3.3-9 1-2.4 3-6.3 5-10-1.5-.1-2.6-.8-2.9-1.3z"/><path class="st0" d="M122.3 11.6c.4-.6.8-.7 1.1-.3.7.8 1.1 2.9 0 5.2-1 2.1-3.4 5.6-4.5 8.1-1.2 2.6-1.2 4.7.4 4.6 1.9-.1 4.5-3.3 6.2-6.5.2-.4.6-.5.8 0 .2.4.2 1.6-.4 2.9-1.2 2.6-4.2 5.2-6.8 5-2.5-.1-3.9-1.6-3.9-3.9-1.5 1.9-3.6 3.7-5.9 3.7-4.4 0-5.3-6-1.4-11.7 3.8-5.6 7.5-7.7 9.9-7.7 2 0 3 1.6 2.9 3.4.5-1.1 1-2.1 1.6-2.8zm-3.8 1.9c-1.5-.1-4.9 2.9-7.5 7.1-2.5 4-3.1 8.2-1.3 8.2 1.9 0 4.4-3 6.8-7.1 2.9-5.1 3.4-8.1 2-8.2z"/><path class="st0" d="M138.7 14.2c1 2-.9 4.5-1.8 7-.2.6-.4.7-1 .4-1.1-.6-1.8-2-1.1-4.1.5-1.7 1.9-3.7 1.3-4.2-.8-.7-4.3 2.4-6.4 6.6-2.6 5.3-1.6 9.2 1.2 9.3 4 0 7.3-3.7 9.3-6.7.2-.4.7-.4.8 0 .1.4 0 1.6-.8 2.8-1.8 2.8-5.5 5.1-9.1 5.1-6 .1-8-5.7-4.9-11.8 3-5.9 7.8-8.5 10.1-7.1 1.1.8 1.8 1.6 2.4 2.7z"/><path class="st0" d="M141.9 10.2c-.5-.7-.2-1 .5-.9 1.3 0 2.6 0 3.9-.2 1.5-2.6 2.8-4.8 3.6-5.8.4-.6.9-.6 1.1 0 .5 1.3.5 2.9-.6 5.3 1.8 0 2.5.8 2.9 1.4.3.6.1.9-.6.9-1-.1-2.5 0-3.7.2-1.8 3.2-4.5 7.7-6.3 11.7-1.6 3.4-1 6.4.9 6.4 2.1.1 4.8-3.2 6.5-6.8.3-.6.8-.7 1 0 .2.8 0 1.6-.5 2.7-.6 1.4-3.7 5.5-7.5 5.4-3.1-.1-5.6-3.6-3.3-9 1-2.4 3-6.3 5-10-1.4-.1-2.5-.8-2.9-1.3z"/><path class="st0" d="M156.4 13.9c.2-1.8.7-2.7 1.7-3.6 1-.9 2.1-1.1 2.5-.7.5.5.2 1-.4 2.1-.2.3-.3.6-.5.9-.3 4.3.6 8 .4 11.3-.1 1.8-.4 3.8-2.1 4.9 3.2-1.2 5.1-4 6.3-6.5.2-.5.7-.4.9 0 .2.4.1 1.6-.7 3.1-1.8 3.2-5 5-8.3 5.2-2.7.1-5.4-.6-7-3.5-1.1-2.1-1-5.2.6-6.5.6-.5.9-.3 1 .5 0 .4 0 .8.1 1.1 2-2.8 4.2-5.9 5.5-8.3zm-5 10.7c.7 2.7 2.1 4.7 3.6 4.2 2.2-.7 1.5-8 1.3-11.8-1.3 2.4-3.1 5-4.9 7.6z"/></svg>